<?xml version="1.0" standalone="no"?><!DOCTYPE svg PUBLIC "-//W3C//DTD SVG 1.1//EN" "http://www.w3.org/Graphics/SVG/1.1/DTD/svg11.dtd"><svg class="icon" width="48px" height="48.00px" viewBox="0 0 1024 1024" version="1.1" xmlns="http://www.w3.org/2000/svg"><path fill="#515151" d="M896 416H608V128c0-35.34-28.66-64-64-64h-64c-35.34 0-64 28.66-64 64v288H128c-35.34 0-64 28.66-64 64v64c0 35.34 28.66 64 64 64h288v288c0 35.34 28.66 64 64 64h64c35.34 0 64-28.66 64-64V608h288c35.34 0 64-28.66 64-64v-64c0-35.34-28.66-64-64-64z" /></svg>