<?xml version="1.0" standalone="no"?><!DOCTYPE svg PUBLIC "-//W3C//DTD SVG 1.1//EN" "http://www.w3.org/Graphics/SVG/1.1/DTD/svg11.dtd"><svg class="icon" width="48px" height="48.00px" viewBox="0 0 1024 1024" version="1.1" xmlns="http://www.w3.org/2000/svg"><path fill="#ffffff" d="M369.777778 853.333333a28.444444 28.444444 0 0 1 0 56.888889h-132.740741A104.296296 104.296296 0 0 1 132.740741 805.925926v-587.851852A104.296296 104.296296 0 0 1 237.037037 113.777778h549.925926a104.296296 104.296296 0 0 1 104.296296 104.296296v284.444445a28.444444 28.444444 0 0 1-56.888889 0v-284.444445A47.407407 47.407407 0 0 0 786.962963 170.666667h-549.925926a47.407407 47.407407 0 0 0-47.407407 47.407407v587.851852a47.407407 47.407407 0 0 0 47.407407 47.407407h132.740741z m-34.285037-515.640889h341.333333a28.444444 28.444444 0 0 1 0 56.888889h-341.333333a28.444444 28.444444 0 0 1 0-56.888889zM703.943111 625.777778H768a142.222222 142.222222 0 0 1 0 284.444444h-170.666667a28.444444 28.444444 0 0 1 0-56.888889h170.666667a85.333333 85.333333 0 1 0 0-170.666666h-64.075852l27.306667 27.306666a28.444444 28.444444 0 0 1-40.239408 40.201482l-75.851851-75.851852a28.444444 28.444444 0 0 1 0-40.201482l75.851851-75.851851a28.444444 28.444444 0 0 1 40.239408 40.201481L703.905185 625.777778z m-367.578074-119.618371h157.525333a28.444444 28.444444 0 0 1 0 56.888889h-157.525333a28.444444 28.444444 0 0 1 0-56.888889z"  /></svg>